<?xml version="1.0" standalone="no"?>
<!DOCTYPE svg PUBLIC "-//W3C//DTD SVG 20010904//EN"
 "http://www.w3.org/TR/2001/REC-SVG-20010904/DTD/svg10.dtd">
<svg version="1.0" xmlns="http://www.w3.org/2000/svg"
 width="283.000000pt" height="178.000000pt" viewBox="0 0 283.000000 178.000000"
 preserveAspectRatio="xMidYMid meet">
<metadata>
Created by potrace 1.10, written by Peter Selinger 2001-2011
</metadata>
<g transform="translate(0.000000,178.000000) scale(0.100000,-0.100000)"
fill="#000000" stroke="none">
<path d="M2059 1198 c-7 -28 -2 -58 9 -58 8 0 10 -5 5 -12 -4 -7 -8 -22 -9
-33 0 -11 -4 -30 -8 -42 -6 -19 -4 -23 13 -23 15 0 21 6 21 21 0 11 5 29 10
40 8 14 7 19 -1 19 -7 0 -4 9 7 22 16 18 17 21 2 15 -13 -4 -18 1 -20 20 -2
15 -9 28 -15 31 -7 2 -13 2 -14 0z"/>
<path d="M1542 1171 c-8 -5 -12 -17 -10 -27 3 -17 5 -16 25 6 26 27 44 19 25
-10 -11 -17 -10 -20 7 -20 20 0 37 32 26 50 -8 12 -55 13 -73 1z"/>
<path d="M1806 1167 c-9 -7 -20 -32 -23 -55 -5 -37 -3 -42 13 -42 16 0 19 6
16 38 -3 45 9 67 33 58 15 -6 17 -15 12 -71 -6 -57 -4 -65 11 -65 14 0 17 10
16 63 0 34 -1 68 -2 75 -3 16 -53 16 -76 -1z"/>
<path d="M1934 1172 c-10 -7 -27 -42 -20 -42 16 0 36 15 36 26 0 8 7 14 15 14
18 0 18 -5 5 -31 -9 -16 -7 -19 9 -19 20 0 37 32 26 50 -7 12 -55 13 -71 2z"/>
<path d="M1230 1145 c0 -16 -6 -25 -15 -25 -8 0 -15 9 -15 20 0 12 -7 20 -17
20 -15 0 -18 -11 -20 -70 -2 -57 0 -68 12 -63 10 3 15 19 15 44 0 32 3 39 20
39 18 0 20 -5 14 -39 -5 -30 -3 -39 10 -44 12 -5 16 0 16 16 0 12 3 46 6 75 6
44 4 52 -10 52 -10 0 -16 -9 -16 -25z"/>
<path d="M1308 1130 c-33 -34 -33 -53 1 -58 41 -6 67 7 84 43 20 41 42 49 27
9 -13 -34 -13 -34 12 -34 12 0 19 3 16 6 -4 3 -2 19 2 35 l9 29 -60 0 c-54 0
-64 -3 -91 -30z m55 -12 c-20 -34 -43 -48 -43 -26 0 21 29 58 46 58 14 0 13
-5 -3 -32z"/>
<path d="M1476 1146 c3 -8 1 -24 -6 -35 -9 -17 -8 -21 4 -21 19 0 40 36 32 56
-3 8 -12 14 -20 14 -9 0 -13 -6 -10 -14z"/>
<path d="M2139 1141 c11 -7 12 -17 2 -54 -14 -59 -15 -57 10 -57 11 0 17 5 14
10 -4 6 -1 26 5 46 13 39 2 64 -29 64 -13 0 -13 -2 -2 -9z"/>
<path d="M1590 1080 c-24 -48 -25 -50 -2 -50 10 1 25 18 38 45 20 43 20 45 3
45 -12 0 -26 -15 -39 -40z"/>
<path d="M1980 1080 c-25 -49 -25 -59 -2 -53 10 2 25 21 33 41 8 20 15 40 17
45 2 4 -3 7 -12 7 -9 0 -25 -18 -36 -40z"/>
<path d="M800 1081 c-123 -38 -201 -159 -185 -287 6 -53 18 -74 30 -55 3 5 1
28 -4 50 -37 166 140 325 299 266 77 -28 83 -29 78 -14 -12 35 -150 60 -218
40z"/>
<path d="M760 1011 c8 -6 45 -20 82 -31 37 -11 70 -24 73 -29 2 -5 -28 -35
-68 -67 -114 -92 -193 -171 -212 -215 -15 -33 -16 -42 -5 -49 7 -4 18 -6 24
-4 172 59 354 80 445 49 29 -9 72 -32 97 -51 53 -41 60 -42 38 -9 -25 38 -106
93 -170 115 -70 25 -185 26 -250 4 -25 -8 -48 -13 -51 -11 -6 6 51 53 207 169
69 51 126 101 128 111 3 15 -8 17 -126 17 -71 0 -151 3 -178 6 -37 4 -45 3
-34 -5z m260 -42 c0 -6 -76 -69 -83 -69 -8 0 -2 65 7 72 11 8 76 6 76 -3z
m-260 -280 c0 -10 -69 -23 -77 -15 -3 3 7 18 22 32 27 25 29 25 42 8 7 -10 13
-21 13 -25z"/>
<path d="M1173 949 c-94 -28 -110 -167 -21 -196 37 -12 108 -1 108 17 0 4 3
16 6 25 5 13 2 15 -20 9 -35 -8 -76 3 -76 21 0 12 14 15 60 15 l60 0 0 38 c0
61 -49 91 -117 71z m62 -59 c0 -10 -12 -16 -32 -18 -35 -3 -41 6 -21 26 17 17
53 11 53 -8z m-82 -52 c-3 -15 -9 -25 -14 -22 -11 6 -12 48 -2 58 12 12 22 -9
16 -36z"/>
<path d="M1452 945 c-18 -8 -30 -10 -27 -5 4 6 -12 10 -37 10 l-44 0 -12 -77
c-7 -43 -15 -89 -18 -103 -5 -24 -3 -25 34 -25 l39 0 11 58 c12 62 25 87 48
87 25 0 25 -10 -1 -126 -4 -19 0 -21 32 -19 37 3 37 3 48 61 13 71 20 84 47
84 19 0 20 -4 15 -42 -4 -24 -9 -57 -12 -74 -7 -30 -6 -30 34 -30 28 1 43 6
46 16 13 45 26 146 21 165 -8 32 -50 40 -95 18 -34 -17 -37 -17 -53 -1 -21 21
-33 22 -76 3z m65 -49 c-6 -17 -31 -13 -35 6 -2 12 2 15 18 11 11 -3 19 -11
17 -17z m117 8 c23 -22 9 -39 -15 -18 -10 9 -16 21 -13 25 7 12 10 11 28 -7z"/>
<path d="M1785 946 c-45 -20 -67 -50 -72 -99 -4 -36 -1 -48 19 -72 21 -24 32
-28 74 -27 37 0 52 5 66 22 26 32 23 36 -29 36 -37 -1 -48 3 -51 17 -3 15 5
17 57 17 l61 0 0 38 c0 64 -62 97 -125 68z m65 -56 c0 -16 -7 -20 -30 -20 -32
0 -33 1 -24 24 9 24 54 21 54 -4z"/>
<path d="M2078 946 c-16 -8 -28 -11 -28 -5 0 5 -18 9 -39 9 l-40 0 -11 -57
c-6 -32 -13 -71 -16 -88 -3 -16 -8 -37 -10 -46 -4 -13 3 -16 33 -15 46 1 50 6
58 71 8 57 19 75 48 75 21 0 21 -5 1 -115 -5 -29 -4 -30 34 -30 l40 -1 11 61
c7 33 14 72 17 87 4 19 -1 33 -15 47 -25 25 -46 26 -83 7z"/>
<path d="M1562 635 l-1 -66 46 3 c57 4 76 27 49 57 -11 12 -30 21 -43 21 -14
0 -23 6 -23 15 0 9 9 15 25 15 16 0 25 -6 25 -15 0 -8 5 -15 11 -15 6 0 9 10
7 23 -3 19 -10 22 -49 25 l-47 3 0 -66z m76 -22 c-2 -10 -13 -19 -26 -21 -17
-3 -22 2 -22 17 0 16 6 21 26 21 19 0 25 -5 22 -17z"/>
<path d="M1719 639 c-29 -58 -32 -94 -5 -56 17 22 84 24 92 2 6 -14 34 -22 34
-10 0 20 -63 125 -75 125 -8 0 -29 -27 -46 -61z m71 -20 c0 -3 -11 -4 -25 -1
-29 5 -29 6 -14 34 11 21 12 21 25 -3 7 -13 13 -27 14 -30z"/>
<path d="M1870 635 c0 -53 3 -65 16 -65 13 0 15 9 12 45 -2 25 -1 45 2 45 3 0
21 -20 40 -45 49 -62 60 -59 60 20 0 46 -4 65 -13 65 -8 0 -11 -14 -9 -47 l3
-48 -42 48 c-57 65 -69 62 -69 -18z"/>
<path d="M2045 635 c0 -45 4 -65 13 -65 8 0 12 20 12 65 0 45 -4 65 -12 65 -9
0 -13 -20 -13 -65z"/>
<path d="M2106 671 l-28 -29 28 -36 c19 -24 37 -36 53 -36 23 0 22 2 -15 34
l-39 34 29 31 c20 21 25 31 15 31 -9 0 -28 -13 -43 -29z"/>
<path d="M1001 635 c-61 -43 -164 -51 -227 -17 -20 11 -34 7 -34 -9 0 -17 104
-41 156 -36 58 6 154 52 154 74 0 18 -10 16 -49 -12z"/>
</g>
</svg>
