<?xml version="1.0" standalone="no"?>
<!DOCTYPE svg PUBLIC "-//W3C//DTD SVG 20010904//EN"
 "http://www.w3.org/TR/2001/REC-SVG-20010904/DTD/svg10.dtd">
<svg version="1.0" xmlns="http://www.w3.org/2000/svg"
 width="300.000000pt" height="130.000000pt" viewBox="0 0 300.000000 130.000000"
 preserveAspectRatio="xMidYMid meet">
<metadata>
Created by potrace 1.10, written by Peter Selinger 2001-2011
</metadata>
<g transform="translate(0.000000,130.000000) scale(0.100000,-0.100000)"
fill="#000000" stroke="none">
<path d="M604 1198 c3 -13 6 -69 6 -125 0 -62 4 -103 10 -103 6 0 10 35 10 84
0 47 4 87 8 90 5 3 52 -39 106 -93 l97 -98 5 -111 c2 -62 0 -112 -4 -112 -5 0
-59 52 -122 115 l-113 115 -134 0 -133 0 0 -125 c0 -69 4 -125 9 -125 17 0 21
31 17 126 -2 52 0 94 3 94 4 0 58 -52 120 -114 l115 -115 133 -3 133 -3 0 135
0 135 -128 128 c-70 70 -131 127 -136 127 -4 0 -6 -10 -2 -22z m-11 -266 c4
10 8 10 16 -2 6 -8 11 -12 11 -8 0 5 41 -33 91 -83 52 -51 88 -94 83 -99 -13
-13 -174 -17 -175 -5 0 6 -3 4 -6 -4 -4 -9 -39 20 -104 85 -55 54 -99 102 -99
106 0 10 152 15 167 5 6 -4 13 -2 16 5z"/>
<path d="M2486 729 c-30 -23 -33 -45 -10 -77 19 -28 57 -29 84 -2 26 26 25 46
-5 75 -29 30 -35 31 -69 4z"/>
<path d="M1190 630 l0 -111 -30 23 c-21 15 -44 22 -78 22 -93 -1 -162 -65
-170 -159 -6 -76 4 -120 39 -160 57 -65 153 -81 212 -35 25 20 25 20 30 -1 4
-17 12 -20 42 -17 l36 3 0 270 0 270 -41 3 -40 3 0 -111z m38 -167 l-3 -28
-19 28 c-18 27 -18 28 0 48 l19 21 3 -21 c2 -11 2 -33 0 -48z m-87 17 c27 -15
49 -63 49 -107 0 -97 -97 -148 -160 -84 -34 34 -45 68 -36 115 12 65 91 105
147 76z m89 -200 c0 -19 -5 -30 -14 -30 -23 0 -27 15 -10 38 20 29 24 28 24
-8z"/>
<path d="M2620 715 c-20 -24 -4 -65 25 -65 24 0 42 16 30 28 -3 3 -10 0 -14
-7 -11 -17 -31 -5 -31 18 0 25 11 33 27 19 15 -12 28 -5 18 11 -9 16 -41 13
-55 -4z"/>
<path d="M2720 710 c-15 -28 4 -60 35 -60 18 0 26 7 31 25 12 48 -44 77 -66
35z m48 -23 c2 -19 -1 -27 -12 -27 -20 0 -29 16 -21 41 9 27 29 19 33 -14z"/>
<path d="M2830 690 c0 -48 17 -54 22 -7 2 17 8 32 13 32 6 0 11 -15 13 -32 4
-41 22 -44 22 -4 0 17 5 33 10 36 6 4 10 -8 10 -29 0 -20 5 -36 11 -36 6 0 9
16 7 38 l-3 37 -52 3 -53 2 0 -40z"/>
<path d="M77 693 c-4 -3 -7 -62 -7 -131 l0 -124 135 -134 135 -135 0 120 c0
66 -4 122 -9 126 -15 8 -21 -25 -19 -93 1 -33 -1 -64 -5 -68 -4 -4 -51 36
-104 89 l-98 96 -5 113 c-3 62 -4 115 -3 117 2 2 58 -50 126 -117 l123 -122
130 0 131 0 -3 48 c-1 26 -2 85 -3 132 -1 59 -4 81 -12 73 -6 -6 -9 -50 -7
-117 2 -58 1 -106 -2 -106 -3 0 -59 54 -125 120 l-120 120 -126 0 c-69 0 -129
-3 -132 -7z m364 -119 c52 -52 89 -94 84 -94 -6 0 -3 -5 5 -10 10 -7 -19 -10
-90 -10 l-105 0 -94 94 c-56 56 -91 98 -86 105 4 8 39 11 100 10 l93 -1 93
-94z"/>
<path d="M1465 557 c-80 -31 -120 -93 -119 -182 1 -90 38 -147 116 -180 49
-20 94 -19 144 4 44 20 86 66 82 90 -2 8 -16 18 -33 23 -25 6 -33 3 -50 -16
-45 -54 -107 -55 -150 -4 -46 55 -40 58 110 58 l135 0 0 43 c0 123 -122 208
-235 164z m104 -72 c27 -14 41 -33 41 -58 0 -8 -28 -12 -90 -12 -50 0 -90 4
-90 8 0 31 54 76 93 77 10 0 31 -7 46 -15z m-152 -116 c-24 -39 -49 -11 -31
36 6 15 8 15 25 -1 15 -13 16 -20 6 -35z"/>
<path d="M2152 557 c-44 -14 -98 -76 -113 -129 -17 -65 3 -143 50 -189 87 -87
233 -72 286 31 14 26 13 27 -21 38 -33 10 -37 9 -63 -21 -48 -53 -136 -36
-159 32 l-11 31 135 0 134 0 0 43 c0 125 -115 204 -238 164z m108 -72 c24 -12
36 -30 44 -64 1 -3 -38 -5 -86 -5 -73 -1 -88 2 -88 15 0 30 46 68 83 69 10 0
31 -7 47 -15z m-151 -83 c7 -14 6 -25 -6 -42 -16 -23 -16 -23 -24 -3 -9 24 -1
63 12 63 4 0 13 -8 18 -18z"/>
<path d="M2723 549 c-26 -13 -47 -32 -57 -54 -21 -44 -22 -43 22 -54 27 -8 38
-8 41 1 8 25 51 58 74 58 28 0 77 -35 77 -55 0 -20 -27 -31 -95 -40 -75 -9
-110 -27 -131 -66 -56 -110 98 -209 199 -128 24 18 25 18 30 -1 4 -15 14 -20
41 -20 l36 0 0 140 c0 165 -9 191 -73 221 -55 24 -112 24 -164 -2z m197 -159
c0 -33 -11 -38 -30 -15 -10 12 -10 18 0 30 19 23 30 18 30 -15z m-47 -62 c-9
-49 -40 -78 -83 -78 -41 0 -60 14 -60 46 0 28 22 46 68 55 76 14 82 13 75 -23z"/>
<path d="M1780 551 c-1 -3 -1 -85 -1 -181 l0 -175 40 -3 39 -3 3 121 c4 114 6
123 28 141 14 11 39 19 62 19 l39 0 0 45 c0 45 0 45 -34 45 -22 0 -45 -9 -64
-25 -37 -31 -44 -31 -36 -1 5 23 3 25 -35 24 -23 0 -41 -3 -41 -7z m69 -60
c12 -8 12 -13 -3 -35 -22 -34 -26 -33 -26 9 0 36 5 41 29 26z"/>
<path d="M2480 551 c-1 -3 0 -93 0 -198 0 -120 -3 -201 -10 -213 -7 -13 -21
-20 -41 -20 -29 0 -30 -2 -27 -37 3 -35 6 -38 37 -41 53 -5 80 6 101 41 18 29
20 51 20 254 l0 222 -40 -1 c-22 0 -40 -3 -40 -7z"/>
</g>
</svg>
