<?xml version="1.0" standalone="no"?>
<!DOCTYPE svg PUBLIC "-//W3C//DTD SVG 20010904//EN"
 "http://www.w3.org/TR/2001/REC-SVG-20010904/DTD/svg10.dtd">
<svg version="1.0" xmlns="http://www.w3.org/2000/svg"
 width="300.000000pt" height="113.000000pt" viewBox="0 0 300.000000 113.000000"
 preserveAspectRatio="xMidYMid meet">
<metadata>
Created by potrace 1.10, written by Peter Selinger 2001-2011
</metadata>
<g transform="translate(0.000000,113.000000) scale(0.100000,-0.100000)"
fill="#000000" stroke="none">
<path d="M516 839 c-15 -11 -44 -47 -66 -79 l-40 -59 -56 55 -57 54 -66 0
c-80 0 -134 -22 -178 -73 -29 -34 -52 -92 -39 -104 3 -3 13 9 23 27 32 58 63
88 108 106 59 22 149 14 179 -15 l20 -21 -69 0 c-121 -1 -185 -48 -185 -135 0
-61 59 -115 127 -115 30 0 93 33 93 49 0 5 20 33 43 63 24 29 55 71 69 93 14
22 45 61 69 87 72 78 139 74 70 -4 -15 -18 -45 -60 -66 -92 -60 -94 -172 -222
-208 -237 -93 -40 -201 1 -241 92 -22 50 -36 63 -36 32 1 -35 38 -101 71 -125
74 -56 169 -61 240 -13 32 21 85 83 139 161 59 86 154 217 167 229 43 44 -58
65 -111 24z m-116 -148 c0 -6 -4 -13 -10 -16 -5 -3 -33 -39 -61 -80 -62 -88
-95 -105 -154 -81 -25 11 -40 26 -51 51 -14 33 -13 40 3 73 10 20 29 42 43 49
29 15 230 18 230 4z"/>
<path d="M182 644 c-24 -17 -30 -62 -10 -82 7 -7 30 -12 52 -11 38 0 39 1 16
11 -62 25 -70 36 -45 62 11 11 35 16 78 17 44 0 56 3 42 9 -33 14 -109 11
-133 -6z"/>
<path d="M1360 843 c-5 -86 3 -391 11 -404 10 -19 59 -49 79 -49 6 0 10 41 10
113 0 122 5 137 51 137 41 0 60 -33 53 -91 -8 -61 10 -113 46 -139 52 -37 56
-31 52 93 -4 153 -8 171 -43 201 -35 30 -103 35 -135 11 -27 -20 -31 -19 -27
13 6 41 -12 80 -49 102 -35 21 -48 25 -48 13z m71 -102 c18 -51 34 -62 66 -50
43 16 83 10 108 -16 23 -23 25 -31 25 -130 0 -58 -4 -105 -8 -105 -15 0 -32
66 -32 122 0 46 -4 59 -26 82 -35 34 -68 33 -105 -3 -30 -30 -31 -34 -31 -148
0 -55 -10 -67 -28 -34 -15 30 -13 334 3 329 6 -3 19 -24 28 -47z"/>
<path d="M1087 826 c-161 -60 -204 -262 -80 -377 71 -67 177 -80 264 -32 27
14 49 29 49 33 0 3 -15 21 -34 39 -33 32 -34 33 -60 16 -20 -13 -40 -16 -78
-13 -43 5 -57 11 -79 38 -38 45 -44 84 -19 136 34 69 120 96 174 53 l26 -20
36 35 c20 19 33 40 29 46 -13 21 -89 52 -139 56 -30 3 -67 -1 -89 -10z m159
-41 c40 -26 17 -41 -39 -26 -101 29 -197 -44 -197 -148 0 -98 95 -171 194
-148 34 8 50 7 58 -1 17 -17 -49 -42 -109 -42 -123 1 -216 126 -183 246 15 52
70 112 121 130 45 16 122 11 155 -11z"/>
<path d="M340 800 c36 -11 92 -11 110 0 10 7 -8 9 -60 9 -53 -1 -68 -3 -50 -9z"/>
<path d="M650 800 c0 -5 18 -10 39 -10 48 0 55 -8 31 -38 -14 -17 -33 -24 -72
-29 -83 -9 -92 -22 -16 -23 57 0 71 4 96 25 17 14 35 39 41 55 l10 30 -65 0
c-36 0 -64 -4 -64 -10z"/>
<path d="M1805 716 c-82 -36 -123 -136 -90 -221 37 -97 158 -142 240 -90 18
11 24 10 44 -6 46 -37 51 -28 51 86 0 117 -11 154 -56 197 -52 48 -126 61
-189 34z m129 -30 c57 -24 78 -66 83 -165 l5 -88 -34 -1 c-18 0 -62 -4 -98 -7
-55 -5 -70 -3 -97 14 -33 21 -63 76 -63 116 0 31 24 87 47 107 42 38 102 47
157 24z"/>
<path d="M1804 637 c-34 -31 -39 -41 -39 -81 0 -36 6 -51 29 -75 55 -57 133
-47 177 22 41 66 -6 153 -88 164 -36 5 -45 1 -79 -30z m109 -9 c55 -29 63 -84
18 -129 -36 -36 -70 -37 -110 -3 -77 64 4 179 92 132z"/>
<path d="M2200 714 c-19 -8 -45 -25 -58 -37 -46 -42 -52 -68 -52 -211 0 -134
0 -136 28 -165 15 -16 38 -32 50 -36 23 -7 24 -6 20 65 -3 67 -2 71 17 65 102
-30 198 4 240 86 19 36 19 112 1 147 -44 85 -157 125 -246 86z m147 -34 c101
-45 112 -182 19 -239 -26 -16 -50 -21 -106 -21 -80 0 -99 -12 -100 -60 0 -14
-4 -32 -10 -40 -17 -28 -30 38 -30 158 0 137 12 166 81 200 54 27 91 27 146 2z"/>
<path d="M2198 630 c-50 -54 -51 -91 -4 -146 30 -35 38 -39 81 -39 41 0 51 4
81 37 54 60 41 138 -30 172 -56 26 -84 21 -128 -24z m137 -15 c46 -45 24 -125
-40 -141 -85 -21 -141 84 -74 140 39 33 82 34 114 1z"/>
<path d="M2595 714 c-68 -35 -95 -79 -95 -155 0 -127 120 -211 232 -161 43 19
45 19 67 1 42 -34 48 -26 44 59 -7 153 -10 169 -32 201 -46 64 -149 90 -216
55z m145 -35 c52 -29 70 -73 70 -168 l0 -78 -32 -1 c-18 -1 -61 -4 -95 -8 -54
-5 -67 -3 -93 16 -88 63 -82 192 12 239 54 27 90 27 138 0z"/>
<path d="M2609 647 c-23 -15 -37 -35 -45 -64 -12 -39 -11 -45 16 -87 22 -34
37 -46 62 -51 62 -12 119 28 138 93 12 44 -8 85 -53 112 -42 26 -76 25 -118
-3z m114 -27 c33 -26 41 -63 23 -99 -30 -56 -110 -65 -143 -15 -54 83 42 175
120 114z"/>
<path d="M552 651 c-10 -6 -4 -10 18 -15 31 -6 32 -7 18 -28 -9 -14 -37 -29
-69 -38 -50 -15 -52 -17 -27 -23 53 -14 138 45 138 94 0 15 -7 19 -32 19 -18
0 -39 -4 -46 -9z"/>
</g>
</svg>
