<?xml version="1.0" standalone="no"?>
<!DOCTYPE svg PUBLIC "-//W3C//DTD SVG 20010904//EN"
 "http://www.w3.org/TR/2001/REC-SVG-20010904/DTD/svg10.dtd">
<svg version="1.0" xmlns="http://www.w3.org/2000/svg"
 width="225.000000pt" height="225.000000pt" viewBox="0 0 225.000000 225.000000"
 preserveAspectRatio="xMidYMid meet">
<metadata>
Created by potrace 1.10, written by Peter Selinger 2001-2011
</metadata>
<g transform="translate(0.000000,225.000000) scale(0.100000,-0.100000)"
fill="#000000" stroke="none">
<path d="M870 2184 c-132 -33 -124 -28 -103 -66 32 -56 133 -156 200 -199 131
-82 261 -114 468 -113 156 0 236 10 393 45 83 19 108 31 83 41 -5 2 -37 28
-71 58 -137 120 -309 203 -508 245 -118 24 -344 19 -462 -11z m412 -9 c43 -2
86 -9 97 -14 11 -6 29 -11 40 -11 11 0 26 -7 35 -15 8 -8 28 -15 45 -15 16 0
32 -4 36 -9 3 -5 19 -12 35 -16 17 -4 30 -11 30 -16 0 -5 7 -9 16 -9 8 0 12
-4 9 -10 -3 -5 3 -10 14 -10 11 0 25 -9 31 -20 6 -11 19 -19 28 -17 17 2 78
-41 129 -89 12 -12 23 -21 25 -20 2 0 -4 -6 -14 -15 -24 -23 -114 -37 -321
-50 -139 -9 -189 -8 -223 1 -24 7 -57 10 -74 8 -16 -3 -30 -1 -30 3 0 4 -16
10 -35 13 -19 4 -35 12 -35 17 0 6 -8 8 -19 4 -21 -6 -38 21 -18 28 7 3 -7 2
-30 0 -26 -4 -43 -2 -43 4 0 6 -13 16 -30 23 -16 7 -27 17 -23 23 3 5 1 7 -5
3 -11 -7 -92 68 -92 85 0 6 -4 8 -9 5 -5 -3 -14 0 -20 8 -9 11 -9 15 1 19 9 4
7 6 -4 6 -14 1 -36 38 -26 45 24 17 104 36 129 31 21 -5 29 -4 25 3 -12 20 69
21 326 7z"/>
<path d="M505 2020 c-143 -103 -260 -233 -345 -385 l-18 -33 111 -55 c148 -72
248 -108 402 -146 156 -37 245 -46 470 -45 248 0 368 17 571 79 125 37 365
131 412 161 2 1 -8 24 -20 50 l-24 49 -59 -2 c-33 -2 -80 -7 -105 -12 -185
-38 -608 -39 -772 -2 -182 41 -308 101 -409 192 -39 36 -119 138 -119 152 0 7
-6 21 -13 30 -11 16 -18 13 -82 -33z m77 -18 c9 2 12 -7 10 -27 -2 -16 0 -26
4 -22 10 10 44 -22 44 -41 0 -9 3 -13 6 -9 10 9 32 -16 27 -30 -3 -7 0 -13 7
-13 7 0 21 -12 32 -26 11 -14 26 -23 34 -20 9 3 11 0 7 -11 -5 -12 -2 -15 10
-10 10 4 16 2 14 -6 -1 -7 5 -12 13 -13 8 -1 40 -13 70 -28 30 -15 46 -24 35
-21 -20 5 -20 5 -1 -10 11 -8 27 -15 35 -15 14 0 14 1 1 10 -17 11 -10 13 14
4 9 -3 13 -10 10 -15 -3 -5 6 -9 20 -9 22 0 83 -17 136 -37 8 -3 35 -5 60 -5
42 1 43 0 15 -8 -24 -7 -17 -8 33 -6 34 1 57 -1 50 -6 -16 -10 -21 -9 151 -8
74 1 191 6 260 12 69 6 152 12 184 12 31 1 57 4 57 9 0 12 125 8 138 -5 17
-17 15 -28 -5 -28 -14 0 -15 -2 -4 -9 11 -7 9 -10 -8 -16 -11 -3 -21 -10 -21
-14 0 -4 -23 -14 -51 -21 -27 -8 -52 -18 -55 -22 -3 -4 -16 -8 -28 -8 -29 0
-92 -26 -80 -32 5 -3 3 -3 -5 -1 -8 2 -32 -6 -55 -17 -23 -11 -64 -23 -91 -26
-28 -4 -52 -10 -55 -14 -3 -4 -22 -10 -43 -14 -30 -6 -37 -4 -31 5 4 8 3 10
-5 5 -6 -4 -9 -12 -6 -17 4 -5 -9 -9 -27 -9 -100 -1 -208 -13 -208 -22 0 -14
-469 -6 -478 8 -4 5 -26 9 -49 9 -23 -1 -40 2 -37 7 3 4 -2 8 -11 8 -9 0 -13
5 -10 10 8 13 -6 13 -39 0 -20 -7 -24 -6 -19 5 4 11 -3 15 -27 15 -38 0 -107
19 -133 36 -10 6 -28 9 -39 6 -13 -3 -19 -1 -15 5 4 6 -17 18 -49 28 -30 9
-61 24 -69 32 -8 8 -19 12 -24 9 -17 -11 -42 6 -36 23 5 13 4 14 -6 4 -15 -15
-33 -17 -24 -3 3 6 2 10 -4 10 -17 0 -22 36 -10 64 9 19 15 23 21 14 5 -9 8
-6 8 10 0 13 13 37 30 55 16 18 30 35 30 38 0 4 32 40 72 80 40 41 71 77 70
81 -1 4 9 10 23 14 14 3 25 10 25 14 0 4 14 13 31 19 18 6 28 15 24 22 -6 8
-2 8 13 0 12 -6 27 -10 34 -9z"/>
<path d="M71 1403 c-5 -27 -15 -72 -21 -101 -11 -58 -14 -272 -4 -343 l6 -44
68 9 c54 7 110 5 266 -14 267 -31 557 -38 683 -16 148 26 276 76 441 172 50
30 159 103 177 120 7 6 32 24 57 40 45 28 63 54 29 39 -43 -19 -216 -64 -303
-80 -126 -23 -371 -31 -500 -15 -194 22 -453 101 -762 231 -65 27 -120 49
-122 49 -2 0 -9 -21 -15 -47z m89 -19 c0 15 4 15 40 -5 22 -13 40 -27 40 -31
0 -5 5 -6 10 -3 6 3 20 3 31 0 17 -6 19 -9 8 -17 -11 -8 -11 -9 2 -5 22 7 91
-17 82 -28 -5 -4 -3 -5 4 -2 6 4 35 -2 65 -13 29 -10 81 -27 116 -37 41 -12
57 -20 45 -24 -15 -5 4 -9 109 -23 10 -1 21 -5 24 -9 4 -4 15 -7 25 -7 9 0 20
-6 23 -12 4 -10 7 -10 12 -1 4 8 23 6 72 -8 37 -11 81 -17 97 -14 24 4 26 3
10 -4 -29 -14 319 -14 386 0 30 6 72 10 94 10 22 0 34 3 27 8 -7 4 15 8 50 8
38 0 63 4 66 11 2 7 10 12 18 12 22 0 4 -30 -22 -36 -13 -3 -22 -10 -19 -14 3
-4 -9 -13 -25 -20 -17 -7 -30 -16 -30 -21 0 -5 -8 -9 -18 -9 -11 0 -27 -8 -36
-19 -9 -10 -31 -21 -47 -25 -17 -3 -28 -10 -25 -15 3 -5 -1 -11 -8 -14 -8 -3
-16 -1 -18 5 -2 6 -18 -1 -34 -15 -23 -20 -34 -23 -42 -15 -9 9 -12 8 -12 -4
0 -10 -13 -18 -37 -24 -52 -10 -55 -11 -78 -13 -15 -1 -17 -3 -7 -10 16 -10
-25 -17 -138 -26 -41 -3 -90 -8 -108 -11 -61 -10 -592 31 -592 46 0 3 -44 5
-97 4 -55 -1 -104 3 -110 8 -7 6 -20 8 -28 4 -13 -4 -15 9 -17 82 -4 117 1
235 10 242 4 3 7 23 8 44 0 22 6 42 12 44 7 2 10 8 6 13 -3 5 -2 14 2 20 4 7
15 1 30 -16 19 -22 24 -24 24 -11z"/>
<path d="M2135 1321 c-33 -16 -105 -60 -160 -99 -392 -276 -523 -348 -745
-412 -197 -57 -428 -63 -810 -19 -168 19 -303 21 -329 4 -20 -12 76 -212 152
-315 22 -30 41 -56 42 -57 2 -4 250 -32 340 -38 118 -9 296 9 415 40 162 43
357 149 570 310 230 173 303 218 389 241 72 18 122 8 171 -33 17 -14 34 -22
38 -19 10 11 7 366 -4 398 l-9 28 -60 -29z m34 -50 c12 -8 15 -36 14 -131 0
-103 -3 -124 -18 -138 -10 -9 -15 -11 -11 -4 5 7 1 12 -11 12 -10 0 -29 6 -43
13 -27 14 -115 3 -105 -13 3 -4 -15 -11 -39 -14 -24 -4 -52 -16 -61 -26 -10
-11 -21 -17 -25 -15 -4 3 -18 -6 -31 -18 -26 -26 -54 -39 -63 -30 -3 4 -1 12
5 20 7 8 8 13 1 13 -13 0 -23 -26 -16 -45 4 -9 0 -15 -7 -15 -21 -1 -120 -76
-112 -85 5 -4 -3 -4 -17 -1 -16 5 -20 4 -12 -2 10 -7 10 -11 -2 -21 -12 -10
-15 -9 -19 6 -4 16 -6 15 -12 -4 -4 -13 -15 -23 -26 -23 -17 0 -34 -16 -34
-32 0 -5 -4 -8 -8 -7 -5 0 -17 -9 -26 -20 -10 -11 -21 -18 -25 -14 -3 3 2 15
11 25 13 14 13 18 2 13 -18 -7 -43 -45 -29 -45 5 0 10 -5 10 -11 0 -6 -7 -8
-16 -5 -10 4 -13 2 -8 -6 5 -8 -3 -9 -29 -5 -20 3 -39 2 -42 -4 -3 -5 1 -6 9
-3 11 4 16 0 16 -12 0 -9 -3 -14 -6 -11 -4 4 -19 -2 -34 -13 -16 -11 -38 -20
-50 -20 -11 0 -19 -4 -16 -9 4 -5 -14 -21 -39 -35 -25 -13 -42 -20 -39 -14 4
6 -3 4 -17 -5 -13 -9 -32 -17 -42 -17 -10 0 -15 -5 -12 -10 4 -7 -4 -9 -23 -5
-21 3 -32 0 -36 -11 -3 -8 -11 -14 -18 -12 -25 4 -88 -13 -88 -25 0 -8 -3 -8
-9 2 -5 8 -16 11 -29 7 -32 -10 -125 -15 -272 -15 -74 1 -155 0 -180 0 -25 0
-69 6 -98 15 -29 8 -57 12 -62 9 -5 -3 -11 -1 -15 5 -4 6 -11 7 -17 4 -7 -4
-8 -2 -4 4 4 7 2 12 -4 12 -6 0 -9 4 -6 9 3 5 -1 14 -9 21 -8 7 -15 18 -15 25
0 7 -7 16 -16 19 -9 4 -14 9 -11 13 4 3 0 11 -9 17 -8 6 -16 24 -18 39 -1 15
-8 33 -14 39 -7 7 -12 18 -12 26 0 7 -4 10 -10 7 -9 -5 -15 15 -11 38 0 4 -4
7 -11 7 -6 0 -2 9 11 21 20 19 30 21 99 15 96 -8 202 -25 224 -37 11 -5 18 -3
22 7 5 14 8 14 21 0 22 -22 508 -21 594 1 31 8 70 14 86 14 23 -1 27 1 15 9
-12 8 -8 10 15 11 17 1 39 3 50 4 31 4 142 44 125 45 -9 1 -5 5 8 11 13 5 28
6 34 3 5 -3 17 1 26 9 9 8 36 22 59 32 23 10 40 22 38 26 -6 8 24 23 41 21 6
-1 19 7 29 18 10 11 26 20 36 20 10 0 22 7 27 16 7 12 18 15 38 11 26 -5 27
-4 11 8 -14 10 -15 15 -5 21 7 5 18 9 24 10 6 1 23 14 37 28 14 14 33 26 41
26 8 0 28 14 45 31 17 17 31 26 31 20 0 -6 7 -8 15 -5 14 6 13 8 -2 20 -16 13
-15 13 10 4 16 -6 26 -6 22 -1 -3 5 4 12 15 16 11 4 18 11 15 16 -4 5 -2 9 4
9 5 0 24 15 42 33 17 17 28 26 25 20 -10 -19 2 -16 31 7 28 22 50 25 72 11z"/>
<path d="M1985 861 c-33 -15 -125 -77 -204 -137 -331 -251 -425 -313 -588
-384 -178 -78 -401 -118 -608 -107 l-110 6 50 -31 c334 -208 733 -233 1080
-68 218 104 435 329 525 547 48 116 49 133 6 171 -46 40 -73 40 -151 3z m85
-11 c-9 -6 -10 -10 -3 -10 6 0 15 5 19 11 5 8 10 6 16 -5 5 -9 14 -13 20 -10
6 4 8 2 4 -4 -3 -6 -2 -13 4 -17 13 -8 13 -25 -1 -25 -5 0 -7 5 -4 10 3 6 1
10 -5 10 -6 0 -8 -10 -4 -26 6 -22 4 -25 -7 -19 -11 7 -12 6 -2 -7 10 -11 10
-23 2 -47 -6 -17 -15 -29 -19 -26 -5 3 -11 -8 -15 -25 -4 -18 -11 -27 -18 -23
-6 4 -8 0 -4 -10 3 -10 2 -17 -4 -17 -6 0 -7 -5 -3 -11 3 -6 0 -15 -7 -20 -8
-4 -14 -12 -14 -16 0 -5 -12 -22 -27 -38 -16 -16 -28 -36 -28 -43 0 -8 -5 -10
-12 -6 -8 5 -9 2 -5 -10 4 -10 3 -15 -3 -11 -5 3 -18 -7 -27 -23 -10 -16 -24
-27 -31 -25 -7 3 -10 -1 -6 -11 4 -10 -3 -19 -20 -27 -14 -7 -23 -15 -21 -20
3 -4 -4 -10 -15 -14 -11 -3 -20 -11 -20 -16 0 -5 -5 -9 -11 -9 -5 0 -7 5 -3
12 4 7 3 8 -5 4 -6 -4 -8 -12 -5 -18 5 -8 1 -9 -11 -4 -15 5 -16 4 -5 -9 10
-12 10 -15 -2 -15 -8 0 -28 -14 -45 -30 -21 -21 -33 -27 -36 -18 -4 8 -8 5
-12 -9 -4 -13 -11 -20 -16 -17 -5 3 -24 -4 -43 -15 -18 -12 -42 -21 -52 -21
-14 0 -16 -2 -6 -9 18 -11 -7 -21 -49 -21 -18 0 -28 -4 -24 -10 3 -5 0 -11 -7
-11 -55 -5 -87 -10 -108 -19 -14 -5 -53 -11 -87 -12 -35 -2 -63 -7 -63 -12 0
-5 -3 -7 -6 -4 -3 4 -19 2 -35 -2 -45 -13 -312 21 -359 45 -18 9 -41 13 -57 9
-22 -4 -25 -3 -13 5 11 8 12 11 2 11 -7 0 -10 5 -6 11 5 8 -1 10 -18 6 -15 -4
-39 1 -62 12 l-36 19 51 4 c28 1 57 -1 66 -6 9 -5 26 -4 41 4 14 6 58 14 96
17 39 3 73 9 74 14 2 5 21 12 43 15 21 4 39 11 39 16 0 5 9 6 21 3 14 -5 25
-1 35 12 10 12 17 14 20 6 4 -8 13 -9 35 -1 16 5 27 13 24 17 -2 4 18 14 45
21 27 7 47 17 44 22 -3 4 1 9 8 10 7 0 18 2 23 3 6 2 15 3 21 4 6 0 25 14 42
31 18 16 38 30 46 30 8 0 19 6 23 14 4 8 19 16 33 18 14 2 24 9 22 16 -2 10 4
11 19 7 18 -6 21 -4 16 9 -4 10 -3 15 3 11 6 -3 10 -1 10 5 0 6 11 8 24 6 20
-4 24 0 23 15 -1 18 -3 19 -13 4 -7 -9 -15 -12 -18 -7 -3 5 11 18 32 28 20 10
48 27 61 36 13 10 28 15 34 11 6 -3 7 -1 3 5 -4 7 -3 12 1 12 5 0 26 17 48 38
21 20 36 32 32 26 -3 -6 0 -11 8 -11 8 0 12 4 9 8 -7 13 59 69 89 76 15 3 27
10 27 15 0 5 -4 6 -10 3 -16 -10 -11 1 7 16 11 10 14 10 9 2 -11 -20 4 -15 35
11 15 13 25 27 22 30 -4 3 9 6 28 7 19 0 27 3 19 6 -9 4 -1 11 25 19 50 15 64
16 45 4z"/>
</g>
</svg>
