<?xml version="1.0" standalone="no"?>
<!DOCTYPE svg PUBLIC "-//W3C//DTD SVG 20010904//EN"
 "http://www.w3.org/TR/2001/REC-SVG-20010904/DTD/svg10.dtd">
<svg version="1.0" xmlns="http://www.w3.org/2000/svg"
 width="283.000000pt" height="178.000000pt" viewBox="0 0 283.000000 178.000000"
 preserveAspectRatio="xMidYMid meet">
<metadata>
Created by potrace 1.10, written by Peter Selinger 2001-2011
</metadata>
<g transform="translate(0.000000,178.000000) scale(0.100000,-0.100000)"
fill="#000000" stroke="none">
<path d="M440 1589 l0 -124 108 -62 107 -62 3 127 c1 70 -1 128 -6 130 -5 1
-49 26 -98 53 -48 28 -94 53 -101 56 -10 4 -13 -21 -13 -118z m74 54 c5 -12 1
-14 -14 -10 -11 3 -18 1 -14 -4 3 -5 24 -9 48 -9 33 0 49 -6 72 -29 26 -25 29
-35 28 -84 -1 -31 -5 -60 -8 -65 -3 -6 -3 -17 0 -26 7 -17 1 -19 -33 -10 -13
4 -23 13 -23 21 0 10 -6 12 -21 8 -15 -5 -19 -4 -15 4 5 7 -1 11 -14 11 -12 0
-18 5 -15 10 6 9 -8 14 -27 11 -12 -2 -9 167 2 174 6 4 8 11 5 16 -3 5 1 6 9
3 8 -3 17 -12 20 -21z"/>
<path d="M875 1680 c-27 -16 -74 -42 -102 -57 l-53 -27 0 -127 0 -127 108 61
107 61 0 123 c0 68 -2 123 -5 123 -3 -1 -27 -14 -55 -30z m34 -99 c3 -79 -19
-126 -60 -135 -17 -3 -28 -10 -24 -16 5 -9 -13 -16 -60 -22 -17 -3 -20 3 -22
37 -1 22 3 53 9 68 9 23 8 31 -3 38 -9 6 -10 9 -2 9 7 0 10 6 7 14 -7 18 27
31 38 14 5 -10 8 -8 8 5 0 11 12 22 30 28 16 6 28 15 25 19 -8 12 18 19 36 9
11 -6 16 -25 18 -68z"/>
<path d="M349 1378 c-35 -21 -83 -48 -106 -60 -24 -12 -43 -25 -43 -28 0 -3
33 -23 73 -44 39 -21 88 -48 107 -59 l36 -20 74 43 c41 24 89 51 107 59 18 9
32 18 32 21 0 3 -48 32 -107 65 l-108 60 -65 -37z m113 -21 c14 -7 23 -18 20
-25 -2 -6 1 -12 7 -12 6 0 11 6 12 13 0 10 2 10 6 0 2 -7 14 -13 25 -13 12 0
18 -3 15 -6 -3 -4 -2 -14 3 -23 7 -14 0 -22 -38 -42 -26 -13 -54 -30 -63 -37
-19 -15 -69 -9 -84 11 -5 7 -18 16 -27 20 -10 3 -18 13 -18 22 0 11 -6 14 -24
9 -21 -5 -24 -3 -19 15 3 12 12 21 19 21 8 0 24 10 35 21 12 12 32 22 45 23
13 0 24 4 24 9 0 11 35 8 62 -6z"/>
<path d="M858 1355 c-59 -33 -108 -62 -108 -65 0 -3 37 -25 83 -49 45 -24 92
-52 105 -62 23 -18 25 -17 113 37 49 30 93 54 97 54 5 0 13 5 20 12 9 9 -1 19
-46 43 -31 17 -79 45 -107 61 l-50 30 -107 -61z m165 -2 c33 -11 46 -20 43
-29 -3 -9 1 -14 12 -14 13 0 14 -2 4 -9 -10 -6 -8 -10 10 -16 l23 -8 -22 -4
c-13 -2 -23 -9 -23 -15 0 -5 -5 -8 -12 -6 -16 6 -49 -23 -41 -35 3 -5 -3 -6
-15 -3 -12 4 -31 2 -43 -4 -17 -10 -23 -8 -36 9 -8 12 -23 21 -34 21 -11 0
-17 4 -14 10 3 5 0 7 -7 5 -8 -3 -24 5 -35 19 l-22 25 25 16 c13 9 29 13 34
10 6 -3 10 0 10 7 0 16 60 47 79 41 8 -2 37 -11 64 -20z"/>
<path d="M720 1115 c0 -80 4 -135 10 -135 5 0 52 -25 105 -55 52 -30 96 -55
98 -55 1 0 3 55 3 122 1 124 -5 148 -39 148 -8 0 -25 8 -38 18 -13 10 -41 27
-62 37 -21 11 -47 28 -58 38 -19 18 -19 16 -19 -118z m70 65 c13 -8 12 -11 -5
-25 -19 -14 -18 -15 9 -3 26 11 30 10 44 -10 8 -12 21 -22 28 -22 8 0 14 -4
14 -10 0 -5 6 -7 13 -4 17 6 19 -28 3 -38 -8 -5 -7 -8 2 -8 27 0 9 -116 -20
-126 -20 -6 -49 11 -45 28 1 5 -16 15 -37 23 -21 7 -42 19 -46 26 -6 9 -7 140
-1 172 2 10 23 9 41 -3z"/>
<path d="M585 1199 c-33 -21 -79 -48 -102 -59 l-43 -20 0 -125 c0 -69 2 -125
5 -125 10 0 166 93 171 102 3 4 14 8 25 8 18 0 19 8 19 130 0 72 -3 130 -7
129 -5 0 -35 -18 -68 -40z m51 -21 c4 -6 -1 -17 -11 -25 -11 -7 -13 -13 -7
-13 8 0 12 -21 12 -63 0 -54 -4 -66 -23 -83 -32 -28 -52 -40 -43 -26 4 7 1 12
-8 12 -10 0 -13 -6 -10 -15 4 -9 0 -15 -9 -15 -8 0 -17 -4 -19 -9 -1 -5 -12
-11 -23 -13 -19 -3 -20 3 -21 88 l-1 91 42 19 c24 10 41 22 39 26 -7 10 31 19
51 11 14 -5 17 -3 12 10 -7 19 8 23 19 5z"/>
<path d="M237 662 c-12 -2 -16 -9 -13 -19 3 -8 6 -24 6 -35 0 -14 5 -18 15
-14 17 6 21 -9 5 -19 -16 -10 -50 -82 -50 -105 0 -14 7 -20 24 -20 18 0 24 6
24 23 0 29 19 77 31 77 16 0 29 -24 33 -60 2 -28 8 -36 26 -38 22 -3 23 -1 16
35 -13 71 -21 84 -49 77 -28 -7 -33 7 -10 26 21 18 19 29 -5 23 -16 -4 -20 0
-20 20 0 29 -7 35 -33 29z"/>
<path d="M699 663 c-11 -2 -15 -11 -12 -22 3 -11 -6 -29 -21 -44 -22 -22 -26
-35 -26 -87 0 -56 2 -60 23 -60 22 0 23 3 19 65 -4 66 6 95 34 95 11 0 14 -19
14 -81 l0 -81 35 4 c23 3 36 -1 40 -10 9 -24 39 -9 42 21 2 27 -19 38 -32 17
-3 -5 -15 -10 -26 -10 -17 0 -19 7 -19 64 0 54 -3 67 -21 79 -11 8 -19 23 -17
32 3 19 -7 25 -33 18z"/>
<path d="M1679 663 c-4 -25 5 -69 14 -75 7 -4 7 -11 -2 -22 -11 -13 -11 -16 2
-16 14 0 14 -4 1 -36 -8 -20 -13 -43 -10 -50 7 -18 49 -19 43 -1 -2 6 2 30 10
52 9 26 10 41 3 43 -7 3 -7 10 0 23 12 21 49 26 51 7 2 -19 2 -18 -6 -80 -6
-57 -6 -58 18 -58 22 0 25 4 25 45 1 25 4 50 7 55 10 16 -5 49 -26 60 -13 7
-31 8 -54 1 l-35 -9 0 34 c0 27 -4 34 -20 34 -11 0 -20 -3 -21 -7z"/>
<path d="M445 648 c-38 -20 -45 -40 -45 -120 0 -74 1 -78 23 -78 21 0 22 3 19
82 -3 89 6 115 33 104 14 -5 16 -19 14 -94 l-3 -87 29 2 c16 1 37 -4 46 -13
23 -21 47 -9 41 22 -3 19 -9 23 -21 18 -57 -24 -58 -22 -53 64 4 74 3 80 -19
96 -27 19 -37 19 -64 4z"/>
<path d="M888 652 c-16 -2 -28 -9 -28 -17 0 -7 -3 -20 -6 -28 -4 -12 0 -14 17
-10 12 3 24 14 26 25 3 10 12 18 20 18 12 0 14 -7 10 -30 -5 -25 -3 -30 12
-30 16 0 41 36 41 59 0 10 -53 17 -92 13z"/>
<path d="M1102 650 c-36 -15 -48 -52 -31 -102 18 -57 17 -63 -6 -64 -40 -2
-43 -4 -41 -29 0 -14 4 -25 8 -25 18 0 38 14 38 27 0 8 14 19 30 24 17 6 30
12 30 14 0 1 -7 19 -15 39 -15 35 -14 36 6 36 36 0 59 19 59 49 0 39 -29 50
-78 31z m34 -44 c-18 -28 -36 -34 -36 -13 0 7 7 23 16 36 24 33 43 11 20 -23z"/>
<path d="M1365 648 c-35 -19 -45 -40 -45 -96 0 -45 3 -53 16 -48 9 3 19 6 22
6 4 0 6 24 4 52 -3 59 8 84 32 75 13 -5 16 -23 16 -97 0 -83 1 -90 20 -90 19
0 20 7 20 89 0 82 -2 91 -22 105 -26 19 -36 19 -63 4z"/>
<path d="M1518 653 c-16 -3 -28 -10 -28 -18 0 -7 -3 -20 -6 -28 -4 -12 0 -14
15 -10 11 3 23 14 26 24 4 10 13 19 21 19 17 0 18 -14 4 -41 -9 -16 -7 -19 10
-19 25 0 25 -11 0 -60 -11 -22 -20 -46 -20 -55 0 -21 39 -19 46 3 3 9 14 36
25 60 24 54 24 61 -1 55 -23 -6 -25 0 -9 29 6 11 7 24 2 28 -12 11 -54 17 -85
13z"/>
<path d="M977 582 c-11 -2 -29 -26 -43 -58 -29 -66 -30 -76 -4 -72 14 2 30 23
50 65 29 64 29 73 -3 65z"/>
<path d="M200 228 l0 -108 60 0 c47 0 64 4 80 20 24 24 26 63 5 80 -11 9 -13
16 -5 24 14 14 13 61 -2 74 -7 5 -41 12 -76 14 l-62 3 0 -107z m115 47 c0 -16
-8 -21 -42 -23 -40 -3 -43 -2 -43 23 0 25 3 26 43 23 34 -2 42 -7 42 -23z m-1
-70 c20 -21 10 -45 -20 -46 -13 -1 -32 -2 -41 -3 -13 -1 -19 8 -21 32 -3 31
-2 32 32 32 19 0 41 -7 50 -15z"/>
<path d="M743 333 c-20 -7 -18 -213 1 -213 10 0 16 13 18 42 4 56 19 57 41 3
13 -31 25 -45 38 -45 24 0 24 1 -7 61 l-25 51 22 24 22 24 -22 0 c-12 0 -33
-12 -47 -27 l-25 -28 3 58 c2 31 1 57 -2 56 -3 0 -11 -3 -17 -6z"/>
<path d="M1157 334 c-4 -4 -7 -18 -7 -31 0 -14 -6 -23 -15 -23 -8 0 -15 -7
-15 -15 0 -8 7 -15 16 -15 13 0 15 -10 11 -65 -4 -58 -2 -65 14 -65 17 0 19 8
19 65 0 59 2 65 21 65 12 0 19 5 16 13 -2 6 -12 11 -21 11 -10 -1 -16 6 -16
18 0 12 6 18 18 16 10 -2 17 3 17 12 0 16 -45 26 -58 14z"/>
<path d="M1348 248 c-20 -51 -39 -101 -43 -111 -5 -13 -2 -17 14 -17 14 0 23
8 27 25 5 22 12 25 50 25 38 0 46 -4 54 -25 5 -14 16 -25 25 -25 20 0 20 -3
-22 116 -49 134 -59 135 -105 12z m67 -4 c19 -47 20 -44 -16 -44 -24 0 -30 3
-25 16 3 9 9 27 12 40 8 32 11 31 29 -12z"/>
<path d="M1533 332 c-7 -5 -12 -43 -12 -109 l-1 -101 48 0 c54 -1 64 4 81 35
17 33 13 67 -10 98 -18 22 -28 26 -50 21 -27 -5 -29 -4 -29 29 0 35 -5 41 -27
27z m71 -88 c21 -8 21 -67 1 -84 -25 -21 -45 -4 -45 38 0 50 9 60 44 46z"/>
<path d="M2125 330 c-4 -7 -3 -16 3 -22 14 -14 45 -2 40 15 -6 16 -34 21 -43
7z"/>
<path d="M2375 330 c-8 -14 3 -30 21 -30 8 0 14 9 14 20 0 21 -24 28 -35 10z"/>
<path d="M413 273 c-7 -2 -13 -11 -13 -19 0 -12 8 -13 36 -8 26 5 39 3 45 -7
14 -22 11 -26 -20 -21 -42 6 -71 -13 -71 -47 0 -39 17 -50 78 -49 l52 1 0 63
c0 44 -5 67 -16 78 -15 15 -65 20 -91 9z m77 -98 c0 -18 -48 -31 -62 -17 -16
16 0 32 33 32 19 0 29 -5 29 -15z"/>
<path d="M560 198 c0 -61 3 -78 15 -78 10 0 15 15 17 56 2 41 8 60 20 68 28
17 41 -6 39 -69 -1 -49 1 -55 19 -55 18 0 20 6 20 58 0 81 -16 101 -80 100
l-50 -1 0 -79z"/>
<path d="M981 254 c-59 -75 33 -180 99 -114 13 13 20 33 20 60 0 75 -76 109
-119 54z m79 -23 c23 -45 -3 -96 -38 -74 -20 12 -26 36 -18 69 8 29 41 32 56
5z"/>
<path d="M1670 276 c0 -2 14 -36 30 -77 25 -60 29 -78 20 -97 -14 -32 -13 -44
6 -40 9 2 31 43 55 103 44 114 45 118 22 113 -10 -2 -24 -23 -33 -50 -9 -26
-19 -50 -21 -53 -3 -2 -13 20 -24 50 -13 40 -23 55 -37 55 -10 0 -18 -2 -18
-4z"/>
<path d="M1858 269 c-36 -20 -13 -67 40 -83 12 -4 22 -14 22 -23 0 -12 -7 -14
-34 -9 -21 4 -37 2 -41 -4 -10 -16 -2 -21 43 -27 35 -5 42 -2 56 19 22 34 12
53 -35 72 -45 18 -43 41 2 32 16 -3 31 -1 35 5 15 25 -53 39 -88 18z"/>
<path d="M1996 264 c-24 -23 -19 -43 15 -62 17 -9 38 -22 47 -29 16 -11 16
-12 -2 -19 -10 -4 -27 -2 -36 4 -14 8 -21 8 -30 -3 -25 -30 65 -49 94 -19 28
28 16 59 -30 79 -43 18 -46 40 -4 32 32 -7 51 10 29 24 -22 14 -66 10 -83 -7z"/>
<path d="M2130 200 c0 -70 2 -80 18 -80 15 0 17 9 14 80 -3 61 -7 80 -18 80
-11 0 -14 -17 -14 -80z"/>
<path d="M2200 199 c0 -72 2 -79 20 -79 16 0 19 8 22 63 3 59 4 62 28 62 24 0
25 -3 28 -62 3 -56 5 -63 23 -63 19 0 20 5 16 66 -3 36 -11 71 -17 79 -7 8
-31 13 -66 13 l-54 -1 0 -78z"/>
<path d="M2371 200 c1 -72 3 -80 20 -80 17 0 19 8 19 80 0 73 -2 80 -20 80
-18 0 -20 -6 -19 -80z"/>
<path d="M2461 271 c-23 -15 -3 -31 30 -24 21 4 34 1 40 -8 14 -22 11 -25 -24
-21 -37 4 -67 -17 -67 -48 0 -33 27 -49 80 -48 l50 1 0 63 c0 44 -5 67 -16 78
-17 17 -70 21 -93 7z m77 -98 c-4 -20 -45 -30 -60 -15 -16 16 1 32 33 32 24 0
30 -4 27 -17z"/>
</g>
</svg>
