<?xml version="1.0" standalone="no"?>
<!DOCTYPE svg PUBLIC "-//W3C//DTD SVG 20010904//EN"
 "http://www.w3.org/TR/2001/REC-SVG-20010904/DTD/svg10.dtd">
<svg version="1.0" xmlns="http://www.w3.org/2000/svg"
 width="170.000000pt" height="170.000000pt" viewBox="0 0 170.000000 170.000000"
 preserveAspectRatio="xMidYMid meet">
<metadata>
Created by potrace 1.10, written by Peter Selinger 2001-2011
</metadata>
<g transform="translate(0.000000,170.000000) scale(0.100000,-0.100000)"
fill="#000000" stroke="none">
<path d="M178 983 c-11 -13 -16 -46 -17 -128 -2 -98 0 -114 18 -134 l20 -23
298 3 c164 2 317 3 340 3 23 0 39 4 37 8 -11 17 28 19 61 4 30 -14 64 -16 237
-12 215 4 238 6 238 17 0 4 6 14 13 21 19 20 77 110 77 120 0 5 4 7 9 4 7 -4
8 29 3 57 -3 13 -57 8 -79 -8 -12 -8 -31 -16 -44 -18 -25 -4 -36 -21 -20 -32
7 -4 9 1 5 12 -5 14 -4 15 4 4 12 -17 4 -43 -11 -34 -6 4 -8 0 -4 -10 4 -11 2
-14 -9 -10 -7 3 -14 11 -14 19 0 8 -6 11 -15 8 -10 -4 -18 3 -24 19 -6 14 -23
33 -40 43 -16 10 -28 21 -25 26 3 4 -5 8 -18 8 -14 0 -19 -3 -11 -8 7 -4 -20
-6 -59 -4 -64 4 -74 7 -96 33 l-24 29 -179 0 c-188 0 -234 -8 -266 -48 -8 -9
-12 -12 -9 -6 3 6 -23 20 -62 32 -90 30 -310 33 -334 5z m349 -41 c49 -26 63
-47 63 -97 0 -25 -8 -43 -25 -61 l-25 -25 118 3 c141 4 151 16 54 64 -82 41
-107 64 -98 97 9 39 51 47 242 47 l174 0 0 -30 0 -30 105 0 104 0 35 -52 c19
-29 43 -64 54 -76 l18 -24 59 76 c35 47 65 76 76 76 11 0 19 -3 19 -6 0 -3
-30 -43 -66 -90 l-66 -84 -208 0 c-250 0 -240 -5 -240 128 l0 83 -97 -3 c-64
-2 -98 -7 -100 -15 -3 -7 30 -29 76 -52 107 -55 126 -93 60 -126 -23 -12 -87
-15 -349 -15 l-320 0 0 121 0 121 148 -4 c127 -3 153 -7 189 -26z m139 -133
c4 -7 -2 -9 -17 -7 -13 2 -30 -4 -37 -12 -11 -13 -11 -11 -2 8 11 23 44 30 56
11z"/>
<path d="M290 850 l0 -90 58 0 c39 0 67 6 90 20 98 60 41 160 -90 160 l-58 0
0 -90z m138 40 c34 -21 43 -36 15 -25 -14 5 -15 3 -7 -5 15 -15 7 -47 -14 -55
-28 -11 -98 -15 -82 -4 10 6 11 9 3 9 -9 0 -13 17 -13 50 0 50 0 50 33 50 17
0 47 -9 65 -20z"/>
<path d="M1032 823 l3 -58 98 -5 c110 -6 108 -8 50 69 -38 50 -38 50 -96 50
l-58 1 3 -57z m110 -8 c-4 -22 -9 -26 -36 -23 -23 2 -32 9 -34 25 -3 18 2 22
30 25 44 5 46 3 40 -27z"/>
</g>
</svg>
