<?xml version="1.0" standalone="no"?>
<!DOCTYPE svg PUBLIC "-//W3C//DTD SVG 20010904//EN"
 "http://www.w3.org/TR/2001/REC-SVG-20010904/DTD/svg10.dtd">
<svg version="1.0" xmlns="http://www.w3.org/2000/svg"
 width="225.000000pt" height="225.000000pt" viewBox="0 0 225.000000 225.000000"
 preserveAspectRatio="xMidYMid meet">
<metadata>
Created by potrace 1.10, written by Peter Selinger 2001-2011
</metadata>
<g transform="translate(0.000000,225.000000) scale(0.100000,-0.100000)"
fill="#000000" stroke="none">
<path d="M356 1366 c-90 -34 -140 -104 -141 -196 0 -82 39 -144 112 -177 46
-21 63 -24 102 -18 25 5 71 7 102 6 47 -2 61 2 87 24 37 31 56 32 92 1 26 -21
38 -24 121 -24 83 0 95 3 116 24 12 13 23 30 23 39 0 22 7 19 48 -24 l37 -39
103 1 c94 0 107 2 132 23 35 30 55 30 90 1 25 -22 37 -23 169 -25 138 -2 143
-1 167 23 13 13 24 34 24 47 0 30 15 52 29 44 6 -4 11 -21 11 -37 0 -44 39
-79 88 -79 48 0 79 30 84 80 3 31 7 35 33 38 47 5 75 38 75 87 0 49 -31 85
-73 85 -23 0 -29 6 -34 30 -17 88 -148 94 -171 7 -6 -24 -15 -33 -38 -38 -16
-4 -37 -10 -46 -14 -15 -6 -18 -1 -18 32 0 51 -23 73 -77 73 -49 0 -78 -28
-87 -85 -11 -68 -22 -72 -36 -16 -19 78 -41 101 -101 101 -28 0 -59 -4 -69
-10 -10 -5 -35 -39 -55 -75 -20 -36 -39 -65 -42 -65 -3 0 -3 22 1 48 5 41 3
53 -15 75 -16 22 -29 27 -64 27 -37 0 -47 -5 -68 -31 l-24 -31 -31 31 c-26 26
-38 31 -81 31 -42 0 -53 -4 -70 -26 -12 -15 -21 -38 -22 -53 -1 -14 -4 -37 -9
-51 -8 -28 -12 -22 -30 48 -16 64 -39 82 -104 82 -51 0 -56 -2 -89 -41 l-35
-40 -14 27 c-27 58 -128 87 -202 60z m147 -45 c23 -9 25 -14 20 -48 -3 -21 -7
-39 -8 -41 -1 -1 -16 5 -34 14 -92 46 -187 -61 -116 -131 26 -27 72 -33 107
-14 20 11 20 9 14 -27 -10 -53 -19 -59 -81 -58 -58 0 -92 17 -127 65 -59 79
-10 219 87 249 33 10 98 6 138 -9z m289 -188 l24 -113 -42 0 c-38 0 -42 3 -47
28 -6 28 -8 29 -58 27 -45 -1 -54 -5 -66 -28 -12 -23 -20 -27 -58 -27 -25 0
-45 2 -45 5 0 3 32 70 72 149 l72 145 51 3 50 3 12 -40 c6 -22 22 -91 35 -152z
m232 105 c23 -43 44 -78 47 -78 3 0 10 37 15 81 l9 82 43 1 c50 1 49 9 22
-164 -11 -69 -20 -128 -20 -132 0 -5 -19 -8 -42 -8 l-43 0 -50 95 c-27 52 -51
91 -52 87 -1 -4 -7 -46 -13 -94 l-12 -88 -45 0 c-32 0 -44 4 -40 13 2 6 12 71
22 142 9 72 18 135 20 141 2 6 21 8 50 5 l48 -6 41 -77z m620 42 c-3 -25 -12
-78 -18 -117 l-12 -73 49 0 c46 0 49 -1 43 -22 -3 -13 -6 -29 -6 -35 0 -10
-25 -13 -90 -13 -65 0 -90 3 -90 13 0 6 9 71 20 142 11 72 20 135 20 140 0 6
20 10 45 10 l46 1 -7 -46z m266 0 l0 -50 54 0 54 0 4 -45 3 -45 -57 0 -58 0 0
-60 0 -60 -45 0 -45 0 0 60 0 60 -55 0 -55 0 0 45 0 45 55 0 55 0 0 50 0 50
45 0 45 0 0 -50z m-456 -96 c15 -75 30 -142 33 -150 4 -11 -6 -14 -40 -14 -42
0 -46 2 -49 27 -3 24 -7 26 -55 28 -48 2 -53 0 -64 -27 -10 -25 -16 -28 -60
-28 l-49 0 75 150 75 150 54 0 53 0 27 -136z m-928 -12 c-16 -36 -19 -37 -66
-37 -55 0 -73 12 -68 46 3 22 7 24 65 24 33 0 65 3 69 8 16 16 16 -5 0 -41z"/>
<path d="M662 1185 l-22 -45 34 0 34 0 -10 42 c-5 23 -10 44 -12 45 -1 1 -12
-18 -24 -42z"/>
<path d="M1338 1185 l-17 -45 31 0 c29 0 30 2 24 31 -3 17 -6 38 -6 45 0 28
-16 13 -32 -31z"/>
</g>
</svg>
